HIERARCHY
ROOT hip
{
	OFFSET 0.000000 0.000000 0.000000 
	CHANNELS 6 Xposition Yposition Zposition Xrotation Zrotation Yrotation
	JOINT abdomen
	{
		OFFSET 0.000000 3.402643 0.000000 
		CHANNELS 3 Xrotation Zrotation Yrotation
		JOINT chest
		{
			OFFSET 0.000000 8.438565 -0.680529 
			CHANNELS 3 Xrotation Zrotation Yrotation
			JOINT neck
			{
				OFFSET 0.000000 10.207942 -0.272212 
				CHANNELS 3 Xrotation Zrotation Yrotation
				JOINT head
				{
					OFFSET 0.000000 3.130431 0.000000 
					CHANNELS 3 Xrotation Zrotation Yrotation
					End Site
					{
						OFFSET 0.000000 3.130435 0.000000 
					}
				}
			}
			JOINT lCollar
			{
				OFFSET 3.470700 6.669187 -0.816635 
				CHANNELS 3 Yrotation Zrotation Xrotation
				JOINT lShldr
				{
					OFFSET 3.198488 0.000000 0.000000 
					CHANNELS 3 Zrotation Yrotation Xrotation
					JOINT lForeArm
					{
						OFFSET 10.139888 0.000000 0.000000 
						CHANNELS 3 Yrotation Zrotation Xrotation
						JOINT lHand
						{
							OFFSET 8.370511 0.000000 0.000000 
							CHANNELS 3 Zrotation Yrotation Xrotation
							End Site
							{
								OFFSET 4.083176 0.000000 0.000000 
							}
						}
					}
				}
			}
			JOINT rCollar
			{
				OFFSET -3.470700 6.669187 -0.816635 
				CHANNELS 3 Yrotation Zrotation Xrotation
				JOINT rShldr
				{
					OFFSET -3.198488 0.000000 0.000000 
					CHANNELS 3 Zrotation Yrotation Xrotation
					JOINT rForeArm
					{
						OFFSET -10.139888 0.000000 0.000000 
						CHANNELS 3 Yrotation Zrotation Xrotation
						JOINT rHand
						{
							OFFSET -8.370511 0.000000 0.000000 
							CHANNELS 3 Zrotation Yrotation Xrotation
							End Site
							{
								OFFSET -4.083176 0.000000 0.000000 
							}
						}
					}
				}
			}
		}
	}
	JOINT lThigh
	{
		OFFSET 5.308129 -1.633274 1.361059 
		CHANNELS 3 Xrotation Zrotation Yrotation
		JOINT lShin
		{
			OFFSET -2.041588 -20.007561 0.000000 
			CHANNELS 3 Xrotation Zrotation Yrotation
			JOINT lFoot
			{
				OFFSET 0.000000 -19.190928 -1.224953 
				CHANNELS 3 Xrotation Yrotation Zrotation
				End Site
				{
					OFFSET 0.000000 -2.449906 4.627600 
				}
			}
		}
	}
	JOINT rThigh
	{
		OFFSET -5.308129 -1.633274 1.361059 
		CHANNELS 3 Xrotation Zrotation Yrotation
		JOINT rShin
		{
			OFFSET 2.041588 -20.007561 0.000000 
			CHANNELS 3 Xrotation Zrotation Yrotation
			JOINT rFoot
			{
				OFFSET 0.000000 -19.190928 -1.224953 
				CHANNELS 3 Xrotation Yrotation Zrotation
				End Site
				{
					OFFSET 0.000000 -2.449906 4.627600 
				}
			}
		}
	}
}
MOTION
Frames: 6
Frame Time: 0.016667
-0.306272 43.727722 -0.197075 -3.922942 -0.317946 -2.852763 -18.224899 -0.558318 2.680210 19.970699 -0.605437 1.139000 8.835659 0.279129 1.763108 7.150060 0.490726 2.235070 2.000000 -2.000000 0.000000 -85.770203 3.839240 -171.218994 28.955400 -0.334475 0.066248 0.048303 -0.034113 -149.197006 -2.000000 2.000000 0.000000 89.270500 -3.031540 -161.559998 -29.629200 0.333688 0.067593 -0.086854 0.092016 -167.761002 -4.474081 2.415066 -19.324150 23.521122 -14.132351 -2.111017 -30.921202 23.355391 22.833532 -5.078937 -0.413596 19.863371 22.493252 13.045063 2.535006 -35.042641 -24.415710 -25.221270 
-0.301158 43.724510 -0.194492 -3.909970 -0.375492 -2.822693 -18.254200 -0.548809 2.677860 19.960899 -0.634731 1.139410 8.877531 0.409590 1.785066 7.218380 0.471052 2.254090 2.000000 -2.000000 0.000000 -85.819099 3.838510 -171.531998 28.896799 -0.334542 0.066125 0.048119 -0.033257 -148.884995 -2.000000 2.000000 0.000000 89.280197 -3.041370 -161.531006 -29.648800 0.333665 0.067634 -0.086742 0.091828 -167.682999 -4.493856 2.496860 -19.282887 23.561544 -14.161300 -2.113929 -30.908102 23.274050 22.823664 -5.090105 -0.359270 19.620720 22.418886 13.029677 2.510627 -34.987804 -24.759228 -25.357101 
-0.309177 43.723091 -0.203832 -3.947956 -0.396490 -2.773449 -18.235901 -0.471917 2.549290 19.960899 -0.439429 1.088550 8.850886 0.406887 1.903472 7.218500 0.519804 2.305660 2.000000 -2.000000 0.000000 93.965897 176.171997 8.106790 28.916300 -0.334520 0.066166 0.048119 -0.033257 -148.884995 -2.000000 2.000000 0.000000 89.094498 -2.973480 -161.324997 -29.570601 0.333757 0.067472 -0.086700 0.091757 -167.654007 -4.500789 2.530046 -19.409426 23.587914 -14.192311 -2.113840 -30.921291 23.302675 22.851490 -5.018391 -0.309465 19.734917 22.399828 13.004850 2.513622 -34.994633 -24.700893 -25.325794 
-0.300668 43.723354 -0.205165 -3.954429 -0.455667 -2.782437 -18.274700 -0.492599 2.577630 19.872999 -0.546836 1.100270 8.892578 0.468614 1.933780 7.257490 0.490453 2.323880 2.000000 -2.000000 0.000000 -85.936401 3.945700 -171.630005 29.023800 -0.334396 0.066390 0.048251 -0.033872 -149.108994 -2.000000 2.000000 0.000000 89.241203 -3.012120 -161.511002 -29.463200 0.333883 0.067249 -0.086380 0.091216 -167.429001 -4.494665 2.543547 -19.527729 23.612177 -14.209673 -2.110737 -31.010410 23.410192 22.948786 -4.992853 -0.243136 19.725143 22.366856 12.982381 2.513329 -34.966354 -24.744444 -25.326796 
-0.297516 43.726303 -0.210334 -3.930565 -0.532710 -2.791195 -18.294600 -0.465642 2.538380 19.872999 -0.566366 1.090740 8.924878 0.463365 1.975189 7.257490 0.490453 2.343410 2.000000 -2.000000 0.000000 -86.024300 4.043400 -171.610001 29.111601 -0.334294 0.066574 0.048199 -0.033632 -149.020996 -2.000000 2.000000 0.000000 89.104202 -3.081120 -161.227997 -29.639000 0.333677 0.067614 -0.086644 0.091663 -167.615005 -4.553344 2.600341 -19.739683 23.658607 -14.230742 -2.125855 -31.601833 22.986322 23.092890 -4.903969 -0.164258 19.760778 22.225409 12.908302 2.456469 -35.003902 -24.391270 -25.141684 
-0.292049 43.720520 -0.209976 -3.958715 -0.553978 -2.800576 -18.294399 -0.452944 2.544460 19.853500 -0.576128 1.091050 8.889412 0.450752 2.002697 7.247750 0.500228 2.353650 2.000000 -2.000000 0.000000 -85.994904 4.083150 -171.317993 29.228800 -0.334158 0.066818 0.048285 -0.034033 -149.167999 -2.000000 2.000000 0.000000 89.104202 -3.110390 -161.238007 -29.629200 0.333688 0.067593 -0.086589 0.091569 -167.576004 -4.497427 2.608942 -19.683851 23.640316 -14.205528 -2.128944 -31.848936 22.703135 23.098345 -4.965932 -0.154672 19.559223 22.268089 12.950062 2.482095 -34.662560 -25.007086 -25.262184 
